<?xml version="1.0" encoding="UTF-8" standalone="no"?>
<svg
   id="svg2"
   width="384"
   height="384"
   version="1.1"
   sodipodi:docname="start-here-kde-logo.svg"
   inkscape:version="1.1.1 (3bf5ae0d25, 2021-09-20, custom)"
   xmlns:inkscape="http://www.inkscape.org/namespaces/inkscape"
   xmlns:sodipodi="http://sodipodi.sourceforge.net/DTD/sodipodi-0.dtd"
   xmlns="http://www.w3.org/2000/svg"
   xmlns:svg="http://www.w3.org/2000/svg"
   xmlns:rdf="http://www.w3.org/1999/02/22-rdf-syntax-ns#"
   xmlns:cc="http://creativecommons.org/ns#"
   xmlns:dc="http://purl.org/dc/elements/1.1/">
  <metadata
     id="metadata14">
    <rdf:RDF>
      <cc:Work
         rdf:about="">
        <dc:format>image/svg+xml</dc:format>
        <dc:type
           rdf:resource="http://purl.org/dc/dcmitype/StillImage" />
      </cc:Work>
    </rdf:RDF>
  </metadata>
  <defs
     id="defs12" />
  <sodipodi:namedview
     pagecolor="#ffffff"
     bordercolor="#666666"
     borderopacity="1"
     objecttolerance="10"
     gridtolerance="10"
     guidetolerance="10"
     inkscape:pageopacity="0"
     inkscape:pageshadow="2"
     inkscape:window-width="1723"
     inkscape:window-height="1035"
     id="namedview10"
     showgrid="false"
     inkscape:zoom="3.4766084"
     inkscape:cx="294.39611"
     inkscape:cy="110.30866"
     inkscape:current-layer="svg2"
     inkscape:pagecheckerboard="0"
     inkscape:window-x="706"
     inkscape:window-y="186"
     inkscape:window-maximized="0" />
  <path
     id="rect4140"
     style="opacity:1;fill:#000000;fill-opacity:1;stroke:none;stroke-width:20;stroke-linecap:round;stroke-linejoin:miter;stroke-miterlimit:4;stroke-dasharray:none;stroke-opacity:1"
     d="M 232.67926,30.656501 170,38.921875 V 229.91016 l 60,-9.34766 v -48.83984 l 42.09766,60.14062 68.62185,-24.19303 -47.47087,-84.20394 46.44661,-67.97135 -65.44198,-23.059005 -39.35548,46.515909 z"
     inkscape:connector-curvature="0"
     sodipodi:nodetypes="cccccccccccc" />
  <path
     id="path4140"
     style="opacity:0.05;fill:#000000;fill-opacity:1"
     d="m 220,48.99759 -40,3.9784 0,170.25601 40,-6.232 0,-72 56,80 47.544,-16 -63.544,-72 64,-72.00001 -48,-16 L 220,129 220,48.99759 Z" />
  <path
     id="path4141"
     style="opacity:0.05;fill:#000000;fill-opacity:1"
     d="m 220,47.99759 -40,3.9784 0,170.25601 40,-6.232 0,-72 56,80 47.544,-16 -63.544,-72 64,-72.00001 -48,-16 L 220,128 220,47.99759 Z" />
  <path
     id="path4139"
     style="opacity:0.05;fill:#000000;fill-opacity:1"
     d="m 220,46.99759 -40,3.9784 0,170.25601 40,-6.232 0,-72 56,80 47.544,-16 -63.544,-72 64,-72.00001 -48,-16 L 220,127 220,46.99759 Z" />
  <path
     id="path4137"
     style="opacity:0.05;fill:#000000;fill-opacity:1"
     d="m 220,45.99759 -40,3.9784 0,170.25601 40,-6.232 0,-72 56,80 47.544,-16 -63.544,-72 64,-72.00001 -48,-16 L 220,126 220,45.99759 Z" />
  <path
     id="path4135"
     style="opacity:0.05;fill:#000000;fill-opacity:1"
     d="m 220,44.99759 -40,3.9784 0,170.25601 40,-6.232 0,-72 56,80 47.544,-16 -63.544,-72 64,-72.00001 -48,-16 L 220,125 220,44.99759 Z" />
  <path
     id="path14"
     style="fill:#eff0f1;fill-opacity:1"
     d="m 220,43.99759 -40,3.9784 0,170.25601 40,-6.232 0,-72 56,80 47.544,-16 -63.544,-72 64,-72.00001 -48,-16 L 220,124 220,43.99759 Z" />
</svg>
